Coordinates
version=1
nRows=14
nColumns=33
inDegrees=yes

Units are S.I. units (second, meters, Newtons, ...)
Angles are in degrees.

endheader
time	ground_thorax_rot_x	ground_thorax_rot_y	ground_thorax_rot_z	ground_thorax_tx	ground_thorax_ty	ground_thorax_tz	clav_prot_r	clav_elev_r	scapula_abduction_r	scapula_elevation_r	scapula_upward_rot_r	scapula_winging_r	shoulder_elv_r	plane_of_elev_r	axial_rot_r	elbow_flexion_r	pro_sup_r	wrist_flex_r	wrist_dev_r	clav_prot_l	clav_elev_l	scapula_abduction_l	scapula_elevation_l	scapula_upward_rot_l	scapula_winging_l	shoulder_elv_l	plane_of_elev_l	axial_rot_l	elbow_flexion_l	pro_sup_l	wrist_flex_l	wrist_dev_l	
8.3300	28.250554	26.297192	40.142587	-34.214172	811.377477	-45.201648	13.079141	34.970026	26.143772	45.000000	-45.000000	-1887.932532	-2446.752457	21.277121	-159.717419	-360.069615	165.341097	13.105656	13.950493	-9.495069	-45.000000	-38.706258	45.000000	-45.000000	-2774.601381	78.337506	25.496997	27.471704	2150.282562	42.108318	13.432056	-17.082372	
8.3400	28.360842	26.145345	39.892566	-36.029882	813.336684	-45.356892	13.090653	34.931960	26.170438	45.000000	-45.000000	-1888.071301	-2446.696108	21.306010	-159.834184	-360.120834	164.624514	13.100326	13.970728	-9.407349	-45.000000	-38.796712	45.000000	-45.000000	-2774.564216	78.428951	25.539249	27.678766	2150.293532	41.944126	13.483980	-17.142640	
8.3500	28.463982	25.999402	39.650099	-37.819816	815.337741	-45.512522	13.104994	34.886600	26.185262	45.000000	-45.000000	-1888.205168	-2446.633291	21.332126	-159.948431	-360.181277	163.865465	13.091091	13.982572	-9.313416	-45.000000	-38.897163	45.000000	-45.000000	-2774.527110	78.523540	25.576715	27.879589	2150.305962	41.782947	13.528641	-17.204392	
8.3600	28.568083	25.852220	39.405689	-39.581818	817.377740	-45.667849	13.116063	34.846457	26.206047	45.000000	-45.000000	-1888.341969	-2446.574616	21.359939	-160.061572	-360.241418	163.073835	13.078152	13.987136	-9.214171	-45.000000	-39.002748	45.000000	-45.000000	-2774.485633	78.616544	25.616490	28.083422	2150.321724	41.624316	13.570896	-17.275120	
8.3700	28.674054	25.703013	39.157965	-41.313394	819.452728	-45.822290	13.125286	34.804189	26.227180	45.000000	-45.000000	-1888.475315	-2446.515753	21.389454	-160.172194	-360.303557	162.259862	13.062000	13.985607	-9.106873	-45.000000	-39.109683	45.000000	-45.000000	-2774.440030	78.709598	25.660713	28.285694	2150.337877	41.468559	13.610996	-17.354417	
8.3800	28.789596	25.545767	38.899430	-43.012110	821.558043	-45.975498	13.131149	34.768923	26.264270	45.000000	-45.000000	-1888.610821	-2446.465791	21.424329	-160.283784	-360.359264	161.436457	13.043447	13.979314	-8.998523	-45.000000	-39.209575	45.000000	-45.000000	-2774.388520	78.799122	25.711332	28.489239	2150.358254	41.315676	13.651140	-17.448917	
8.3900	28.909404	25.386155	38.636762	-44.675371	823.688095	-46.127381	13.137003	34.731553	26.306592	45.000000	-45.000000	-1888.742444	-2446.416953	21.460571	-160.398007	-360.416024	160.611276	13.025044	13.967567	-8.887940	-45.000000	-39.302788	45.000000	-45.000000	-2774.334483	78.889195	25.763661	28.685993	2150.381216	41.166035	13.687803	-17.554645	
8.4000	29.036653	25.220046	38.369154	-46.300557	825.836483	-46.278022	13.141157	34.700749	26.371080	45.000000	-45.000000	-1888.876479	-2446.379279	21.497135	-160.520508	-360.469425	159.792207	13.009237	13.950272	-8.783555	-45.000000	-39.389948	45.000000	-45.000000	-2774.277717	78.977687	25.811723	28.874485	2150.409299	41.019511	13.720297	-17.675258	
8.4100	29.161558	25.060446	38.104451	-47.885117	827.996159	-46.427490	13.142723	34.663124	26.427936	45.000000	-45.000000	-1889.003389	-2446.337827	21.534079	-160.649158	-360.529623	158.980097	12.997020	13.929714	-8.663220	-45.000000	-39.481044	45.000000	-45.000000	-2774.215149	79.065994	25.861849	29.051165	2150.435641	40.877720	13.747691	-17.803483	
8.4200	29.286299	24.904809	37.842132	-49.426588	830.159432	-46.575548	13.143351	34.625341	26.484409	45.000000	-45.000000	-1889.125035	-2446.298700	21.573936	-160.786697	-360.591447	158.176763	12.987896	13.907089	-8.538006	-45.000000	-39.573610	45.000000	-45.000000	-2774.147019	79.153176	25.909590	29.210209	2150.463079	40.740924	13.769177	-17.940722	
8.4300	29.406992	24.760938	37.583949	-50.922972	832.318473	-46.721440	13.144693	34.583563	26.527095	45.000000	-45.000000	-1889.240346	-2446.256107	21.615932	-160.932795	-360.660276	157.383559	12.983122	13.883623	-8.402383	-45.000000	-39.669887	45.000000	-45.000000	-2774.075571	79.239505	25.958405	29.353269	2150.489896	40.610342	13.784043	-18.083964	
8.4400	29.534747	24.614162	37.321329	-52.372716	834.465315	-46.863708	13.145828	34.550463	26.587458	45.000000	-45.000000	-1889.355880	-2446.227680	21.658532	-161.090292	-360.724708	156.609108	12.983312	13.858737	-8.277792	-45.000000	-39.760672	45.000000	-45.000000	-2774.004029	79.322967	26.000019	29.478222	2150.520421	40.486332	13.792543	-18.239775	
8.4500	29.661615	24.477385	37.060901	-53.775049	836.592392	-47.000232	13.145627	34.515219	26.642690	45.000000	-45.000000	-1889.468204	-2446.200048	21.699896	-161.255094	-360.793821	155.860359	12.989920	13.833935	-8.143526	-45.000000	-39.851447	45.000000	-45.000000	-2773.928862	79.403135	26.043843	29.592112	2150.551628	40.371995	13.794865	-18.402808	
8.4600	29.795106	24.339857	36.798703	-55.129673	838.692401	-47.128342	13.145347	34.487065	26.714326	45.000000	-45.000000	-1889.581267	-2446.183297	21.740135	-161.427320	-360.858238	155.147895	13.002189	13.808037	-8.020494	-45.000000	-39.931709	45.000000	-45.000000	-2773.852647	79.479515	26.082158	29.688970	2150.587979	40.268752	13.791597	-18.578173	
